<?xml version="1.0"?>

<svg version="1.1" id="Capa_2_00000067917343567921636820000011590094499189544601_" xmlns="http://www.w3.org/2000/svg" xmlns:xlink="http://www.w3.org/1999/xlink" x="0px" y="0px" viewBox="0 0 160.3 132.1" style="enable-background:new 0 0 160.3 132.1;" xml:space="preserve">

<g id="Capa_1-2">
&#x9;<g>
&#x9;&#x9;<g class="st0">
&#x9;&#x9;&#x9;<path class="st1" d="M38.4,83.9c-0.4,0-0.8-0.4-0.8-0.8l0.2-5.1c-3.6,4.3-8.6,6.9-15,6.9c-14.4,0-22-11.5-22-26.3&#xA;&#x9;&#x9;&#x9;&#x9;c0-14.7,8.5-26.6,22.3-26.6c6.3,0,11.3,2.3,14.7,6.4l-0.3-4.6c0-0.4,0.4-0.8,0.8-0.8h13.3c0.4,0,0.8,0.4,0.8,0.8l-0.2,24.7&#xA;&#x9;&#x9;&#x9;&#x9;l0.2,24.6c0,0.4-0.4,0.8-0.8,0.8H38.4z M26.9,75c7.2,0,11.1-5.4,11.2-16.2C38.2,48,34.3,42.1,27.2,42&#xA;&#x9;&#x9;&#x9;&#x9;c-7.5-0.2-11.4,5.4-11.4,15.9C15.9,69.3,19.8,75.1,26.9,75z"></path>
&#x9;&#x9;&#x9;<path class="st1" d="M56.9,28.1c-0.4,0-0.8-0.4-0.8-0.8V15.6c0-0.4,0.4-0.8,0.8-0.8h13.4c0.4,0,0.8,0.4,0.8,0.8v11.8&#xA;&#x9;&#x9;&#x9;&#x9;c0,0.4-0.4,0.8-0.8,0.8H56.9z M56.9,83.9c-0.4,0-0.8-0.4-0.8-0.8l0.2-24.6l-0.2-24.7c0-0.4,0.4-0.8,0.8-0.8h13.4&#xA;&#x9;&#x9;&#x9;&#x9;c0.4,0,0.8,0.4,0.8,0.8l-0.2,24.7l0.2,24.6c0,0.4-0.4,0.8-0.8,0.8H56.9z"></path>
&#x9;&#x9;&#x9;<path class="st1" d="M89.7,65.7l0.2,17.5c0,0.4-0.4,0.8-0.8,0.8H75.5c-0.4,0-0.8-0.4-0.8-0.8l0.2-17.5V33.9&#xA;&#x9;&#x9;&#x9;&#x9;c0-0.4,0.4-0.8,0.8-0.8h12.7c0.4,0,0.8,0.4,0.8,0.8l-0.3,5.6c3.6-4.9,8.1-7.6,14.6-7.6c7.1,0,12.2,3.1,14.6,9.6&#xA;&#x9;&#x9;&#x9;&#x9;c4.3-7.7,9.4-9.6,15.4-9.6c10.3,0,16.2,6.2,16.2,19.7v14l0.2,17.5c0,0.4-0.4,0.8-0.8,0.8h-13.4c-0.4,0-0.8-0.4-0.8-0.8l0.2-17.5&#xA;&#x9;&#x9;&#x9;&#x9;V51.8c0-6.1-2.5-9.1-6.5-9.1s-8.9,5.4-8.9,15.8v7.1l0.2,17.5c0,0.4-0.4,0.8-0.8,0.8h-13.4c-0.4,0-0.8-0.4-0.8-0.8l0.2-17.5V51.8&#xA;&#x9;&#x9;&#x9;&#x9;c0-6.1-2.4-9.1-6.5-9.1c-4.1,0-8.9,5.4-8.9,15.8V65.7z"></path>
&#x9;&#x9;</g>
&#x9;&#x9;<g>
&#x9;&#x9;&#x9;<g>
&#x9;&#x9;&#x9;&#x9;<path class="st1" d="M41.1,110.8v2.5c0,2.9-1.5,5.5-4,6.9v4.7c0,0.7-0.4,1.2-1,1.5v1c0,0.9-0.7,1.6-1.6,1.6H24.5&#xA;&#x9;&#x9;&#x9;&#x9;&#x9;c-0.9,0-1.6-0.7-1.6-1.6v-1c-0.6-0.2-1-0.8-1-1.5v-4.7c-0.5-0.4-1-0.8-1.4-1.3c-0.4,0.4-0.8,0.8-1.3,1.2v4.7&#xA;&#x9;&#x9;&#x9;&#x9;&#x9;c0,0.7-0.4,1.2-1,1.5v1c0,0.9-0.7,1.6-1.6,1.6h-10c-0.9,0-1.6-0.7-1.6-1.6v-1c-0.6-0.2-1-0.8-1-1.5V120c-2.5-1.4-4-4-4-6.8v-2.5&#xA;&#x9;&#x9;&#x9;&#x9;&#x9;c0-1.4,0.8-2.8,2-3.4V106c0-5,0.9-9,6.6-8.9h8c1.4,0,2.8,0.5,3.9,1.3c1.1-0.8,2.5-1.3,3.9-1.3h8.1c3.6,0,6.6,3,6.6,6.6v3.6&#xA;&#x9;&#x9;&#x9;&#x9;&#x9;C40.3,108,41.2,109.3,41.1,110.8L41.1,110.8z M39.9,113.3v-2.5c0-1-0.7-2.1-1.5-2.4H35c-2.5,0-2.7,3.8,0,3.8h1.5&#xA;&#x9;&#x9;&#x9;&#x9;&#x9;c0.3,0,0.6,0.3,0.6,0.6s-0.3,0.6-0.6,0.6H35c-1.7,0-3-1.3-3.1-3h-6.4c-2.6,0-4.6-2.1-4.6-4.6c0-0.3,0.3-0.6,0.6-0.6&#xA;&#x9;&#x9;&#x9;&#x9;&#x9;s0.6,0.3,0.6,0.6c0,1.9,1.5,3.4,3.4,3.4h6.6c0.4-1.2,1.6-2,2.9-2h2.9v-3.4c0-3-2.4-5.4-5.4-5.4h-8c-3,0-5.4,2.4-5.4,5.4v8&#xA;&#x9;&#x9;&#x9;&#x9;&#x9;c0,2.9,1.4,5.7,3.6,7.4h13.7C38.6,118,39.9,115.8,39.9,113.3L39.9,113.3z M35.9,124.7v-4.4h-9.8v4.8h9.5&#xA;&#x9;&#x9;&#x9;&#x9;&#x9;C35.8,125,35.9,124.8,35.9,124.7L35.9,124.7z M34.9,127.1v-0.9H24.1v0.9c0,0.2,0.2,0.4,0.4,0.4h10.1&#xA;&#x9;&#x9;&#x9;&#x9;&#x9;C34.8,127.5,34.9,127.3,34.9,127.1L34.9,127.1z M24.9,125v-4.8h-1.8v4.4c0,0.2,0.2,0.4,0.4,0.4H24.9L24.9,125z M18.4,119.1&#xA;&#x9;&#x9;&#x9;&#x9;&#x9;c0.5-0.4,0.9-0.8,1.3-1.3c-1.2-1.8-1.9-3.9-1.9-6v-8c0-1.7,0.7-3.3,1.8-4.5c-0.9-0.6-1.9-0.9-3-0.9h-8c-4.8,0-5.2,3.1-5.4,7.8&#xA;&#x9;&#x9;&#x9;&#x9;&#x9;v3.6c0,1.3,1.1,2.4,2.4,2.4c0.3,0,0.6,0.3,0.6,0.6s-0.3,0.6-0.6,0.6c-2,0-3.6-1.6-3.6-3.6v-0.9c-0.5,0.5-0.8,1.2-0.8,1.9v2.5&#xA;&#x9;&#x9;&#x9;&#x9;&#x9;c0,2.5,1.3,4.7,3.5,5.9C4.8,119.1,18.4,119.1,18.4,119.1z M18,124.5v-4.4H5.3v4.4c0,0.2,0.2,0.4,0.4,0.4h12&#xA;&#x9;&#x9;&#x9;&#x9;&#x9;C17.9,124.8,18,124.7,18,124.5z M17,127V126H6.3v0.9c0,0.2,0.2,0.4,0.4,0.4h10C16.9,127.3,17,127.2,17,127L17,127z"></path>
&#x9;&#x9;&#x9;&#x9;<path class="st1" d="M35.9,120.2v4.4c0,0.2-0.2,0.4-0.4,0.4h-9.5v-4.8H35.9L35.9,120.2z"></path>
&#x9;&#x9;&#x9;&#x9;<path class="st1" d="M18,120.1v4.4c0,0.2-0.2,0.4-0.4,0.4h-12c-0.2,0-0.4-0.2-0.4-0.4v-4.4H18L18,120.1z"></path>
&#x9;&#x9;&#x9;</g>
&#x9;&#x9;&#x9;<g>
&#x9;&#x9;&#x9;&#x9;<g>
&#x9;&#x9;&#x9;&#x9;&#x9;<path class="st1" d="M151.9,112.3l2.8-8.5l0,0c0.5,0,1,0,1.4,0.1c0.9,0.2,1.8,0.7,2.4,1.4c1.2,1.4,1.4,3.4,1.1,5.2&#xA;&#x9;&#x9;&#x9;&#x9;&#x9;&#x9;c-0.1,0.8-1.4,1.7-3.7,3.8c-2.3,2.1-1.5,7-1.4,7.6c0.1,0.6,0.9,5.3,0.9,6.9c-0.1,1.6-2.2,2.7-3.1,2.7s-2.1-0.8-2.5-1.3&#xA;&#x9;&#x9;&#x9;&#x9;&#x9;&#x9;c-0.4-0.5-2.4-5.9-2.7-6.8c0-0.1-0.1-0.3-0.1-0.6c0,0,0.1,0.3,1.3,0.1c1.7-0.4,2.9-8.2,2.9-8.2l0.1-0.4L151.9,112.3&#xA;&#x9;&#x9;&#x9;&#x9;&#x9;&#x9;L151.9,112.3z"></path>
&#x9;&#x9;&#x9;&#x9;&#x9;<path class="st1" d="M146.1,108.6L146.1,108.6c-0.1-0.8-0.1-1.6-0.1-2.5l7.2-4.7l0.1-0.1h0.1c0,0.9,0.1,1.7,0.1,1.9l-0.1,0&#xA;&#x9;&#x9;&#x9;&#x9;&#x9;&#x9;L146.1,108.6L146.1,108.6z"></path>
&#x9;&#x9;&#x9;&#x9;&#x9;<path class="st1" d="M153.4,99.5c0,0.6,0,1.3,0,1.8h-0.1l-0.1,0.1l0-0.1H146c0-0.7,0-1.3,0-1.8H153.4z"></path>
&#x9;&#x9;&#x9;&#x9;&#x9;<path class="st1" d="M146.1,108.6l5.9,3.7l-0.6,1.9l-5.1-3.2H146C146,110.2,146,109.4,146.1,108.6L146.1,108.6L146.1,108.6z"></path>
&#x9;&#x9;&#x9;&#x9;&#x9;<path class="st1" d="M136.2,99.9l7.1,0.7c-0.1,0.7-0.3,1.4-0.4,2.1l-0.2,0l-6.8-0.8l-0.2,0c0.1-0.7,0.3-1.3,0.4-1.9L136.2,99.9&#xA;&#x9;&#x9;&#x9;&#x9;&#x9;&#x9;L136.2,99.9z"></path>
&#x9;&#x9;&#x9;&#x9;&#x9;<path class="st1" d="M141.9,114.4c0.1-1.1,0.2-2.2,0.2-3.3l0.6,0.8c0.3,3.4,0.6,10.5,0.5,12.1c-0.1,1.8-0.4,3.6-1.1,5&#xA;&#x9;&#x9;&#x9;&#x9;&#x9;&#x9;c-0.7,1.4-2.9,2.4-4.4,2.4s-2.4-0.6-3.8-1.8s-1.8-3.8-1.9-6.3c-0.1-1.7,0.3-6.9,1-11.2l0.4-0.2c-0.2,3.8,0.1,10.3,4,10.3&#xA;&#x9;&#x9;&#x9;&#x9;&#x9;&#x9;C140.3,122.3,141.4,118.3,141.9,114.4L141.9,114.4z"></path>
&#x9;&#x9;&#x9;&#x9;&#x9;<path class="st1" d="M138.7,106.1l3.9-2.3c-0.3,1.4-0.5,2.6-0.5,2.8c0,0.1,0,0.2,0,0.4l-2,1.1L138.7,106.1L138.7,106.1z"></path>
&#x9;&#x9;&#x9;&#x9;&#x9;<path class="st1" d="M140.1,108.2l2,3c0,1-0.1,2.1-0.2,3.3l-3.6-5.2L140.1,108.2z"></path>
&#x9;&#x9;&#x9;&#x9;&#x9;<polygon class="st1" points="140.1,108.2 138.3,109.2 136.9,107.2 138.7,106.1 &#x9;&#x9;&#x9;&#x9;&#x9;"></polygon>
&#x9;&#x9;&#x9;&#x9;&#x9;<path class="st1" d="M135.9,101.9l2.9,4.2l-1.8,1.1l-1.9-2.7l0,0c0.2-0.9,0.4-1.8,0.6-2.6L135.9,101.9L135.9,101.9z"></path>
&#x9;&#x9;&#x9;&#x9;&#x9;<path class="st1" d="M138.3,109.2l-5,2.8c0.1-1.4,0.2-2.4,0.2-2.7v0c0,0,0-0.1,0-0.1l3.3-2L138.3,109.2L138.3,109.2z"></path>
&#x9;&#x9;&#x9;&#x9;</g>
&#x9;&#x9;&#x9;&#x9;<g>
&#x9;&#x9;&#x9;&#x9;&#x9;<path class="st2" d="M142.1,107c0-0.1,0-0.2,0-0.4c0-0.3,0.2-1.4,0.5-2.8c0.1-0.4,0.1-0.8,0.2-1.1c0.1-0.7,0.3-1.4,0.4-2.1&#xA;&#x9;&#x9;&#x9;&#x9;&#x9;&#x9;c0.4-1.9,0.7-3.4,0.7-3.4l-7.5-0.1c0,0-0.2,1.2-0.5,2.9c-0.1,0.6-0.2,1.2-0.4,1.9c-0.2,0.9-0.4,1.8-0.6,2.6&#xA;&#x9;&#x9;&#x9;&#x9;&#x9;&#x9;c-0.3,1.1-0.6,2.1-0.9,3c-0.2,0.5-0.4,1.1-0.5,1.7"></path>
&#x9;&#x9;&#x9;&#x9;&#x9;<path class="st2" d="M142.1,107.4c0-0.1,0-0.1,0-0.2"></path>
&#x9;&#x9;&#x9;&#x9;&#x9;<path class="st2" d="M133.6,109.3c-0.2,0.9-0.4,1.9-0.6,2.9c-0.7,4.2-1.1,9.5-1,11.2c0.1,2.5,0.5,5.1,1.9,6.3s2.3,1.8,3.8,1.8&#xA;&#x9;&#x9;&#x9;&#x9;&#x9;&#x9;s3.7-1.1,4.4-2.4c0.7-1.3,1-3.2,1.1-5c0.1-1.6-0.2-8.8-0.5-12.1c0-0.5-0.1-0.9-0.1-1.2c-0.2-1.7-0.4-2.7-0.4-3.4"></path>
&#x9;&#x9;&#x9;&#x9;&#x9;<path class="st2" d="M153.4,99.5c0-1.3,0.1-2.5,0-2.5h-7.3c0,0,0,1,0,2.5c0,0.6,0,1.2,0,1.8c0,1.4,0,3.1,0,4.8&#xA;&#x9;&#x9;&#x9;&#x9;&#x9;&#x9;c0,0.8,0,1.7,0,2.5c0,0.8,0,1.6,0,2.3c0,3,0,5.3,0.1,5.7c0.1,0.9,0.6,4.6,0.9,6.2c0,0.2,0.1,0.4,0.1,0.6c0.3,1,2.3,6.4,2.7,6.8&#xA;&#x9;&#x9;&#x9;&#x9;&#x9;&#x9;c0.4,0.5,1.6,1.3,2.5,1.3s3.1-1.1,3.1-2.7c0.1-1.6-0.8-6.3-0.9-6.9c-0.1-0.6-0.8-5.5,1.4-7.6s3.6-3.1,3.7-3.8&#xA;&#x9;&#x9;&#x9;&#x9;&#x9;&#x9;c0.3-1.7,0.1-3.8-1.1-5.2c-0.6-0.7-1.5-1.3-2.4-1.4c-0.4-0.1-0.9,0-1.4-0.1c-0.5,0-0.9-0.1-1.2-0.5c0,0,0,0,0,0&#xA;&#x9;&#x9;&#x9;&#x9;&#x9;&#x9;c-0.1-0.2-0.1-1-0.1-1.9C153.4,100.8,153.4,100.2,153.4,99.5L153.4,99.5z"></path>
&#x9;&#x9;&#x9;&#x9;&#x9;<path class="st2" d="M142.1,107.2c0-0.1,0-0.2,0-0.2"></path>
&#x9;&#x9;&#x9;&#x9;&#x9;<path class="st2" d="M142.1,107.4C142.1,107.4,142.1,107.4,142.1,107.4"></path>
&#x9;&#x9;&#x9;&#x9;&#x9;<path class="st2" d="M133.6,109.2L133.6,109.2"></path>
&#x9;&#x9;&#x9;&#x9;&#x9;<polyline class="st2" points="135.1,104.5 136.9,107.2 138.3,109.2 141.9,114.4 142.3,115 &#x9;&#x9;&#x9;&#x9;&#x9;"></polyline>
&#x9;&#x9;&#x9;&#x9;&#x9;<line class="st2" x1="142.7" y1="102.7" x2="135.9" y2="101.9"></line>
&#x9;&#x9;&#x9;&#x9;&#x9;<polyline class="st3" points="145.9,101.4 146,101.4 153.1,101.4 &#x9;&#x9;&#x9;&#x9;&#x9;"></polyline>
&#x9;&#x9;&#x9;&#x9;&#x9;<polyline class="st4" points="153.3,101.4 153.2,101.4 146,106.2 145.9,106.2 &#x9;&#x9;&#x9;&#x9;&#x9;"></polyline>
&#x9;&#x9;&#x9;&#x9;&#x9;<polyline class="st4" points="153.4,103.3 146.1,108.6 146,108.7 145.9,108.7 &#x9;&#x9;&#x9;&#x9;&#x9;"></polyline>
&#x9;&#x9;&#x9;&#x9;&#x9;<polyline class="st4" points="146.1,108.6 146.1,108.6 151.9,112.3 152,112.3 &#x9;&#x9;&#x9;&#x9;&#x9;"></polyline>
&#x9;&#x9;&#x9;&#x9;&#x9;<polyline class="st4" points="146.1,111 151.3,114.2 151.4,114.3 &#x9;&#x9;&#x9;&#x9;&#x9;"></polyline>
&#x9;&#x9;&#x9;&#x9;</g>
&#x9;&#x9;&#x9;</g>
&#x9;&#x9;&#x9;<g>
&#x9;&#x9;&#x9;&#x9;<path class="st5" d="M114.6,110.4H98.3c-1.4,0-2.5-0.9-2.5-2v-9.6c0-1.1,1.1-2,2.5-2h16.3c1.4,0,2.5,0.9,2.5,2v9.6&#xA;&#x9;&#x9;&#x9;&#x9;&#x9;C117.1,109.5,116,110.4,114.6,110.4z"></path>
&#x9;&#x9;&#x9;&#x9;<g>
&#x9;&#x9;&#x9;&#x9;&#x9;<path class="st5" d="M104.8,103.6c0,1.5-1.2,2.7-2.7,2.7s-2.7-1.2-2.7-2.7s1.2-2.7,2.7-2.7S104.8,102.1,104.8,103.6z"></path>
&#x9;&#x9;&#x9;&#x9;&#x9;<path class="st5" d="M113.5,103.6c0,1.5-1.2,2.7-2.7,2.7s-2.7-1.2-2.7-2.7s1.2-2.7,2.7-2.7S113.5,102.1,113.5,103.6z"></path>
&#x9;&#x9;&#x9;&#x9;</g>
&#x9;&#x9;&#x9;&#x9;<path class="st6" d="M95.8,107.1h-1.2c-0.5,0-0.8-0.3-0.8-0.7v-6.1c0-0.4,0.4-0.7,0.8-0.7h1.2V107.1z"></path>
&#x9;&#x9;&#x9;&#x9;<path class="st6" d="M117.1,107.1h1.2c0.5,0,0.8-0.3,0.8-0.7v-6.1c0-0.4-0.4-0.7-0.8-0.7h-1.2V107.1z"></path>
&#x9;&#x9;&#x9;&#x9;<rect x="101.7" y="110.9" class="st6" width="9.4" height="2.2"></rect>
&#x9;&#x9;&#x9;&#x9;<rect x="105.1" y="113.1" class="st5" width="2.6" height="9.8"></rect>
&#x9;&#x9;&#x9;&#x9;<rect x="98" y="122.8" class="st5" width="16.9" height="2.6"></rect>
&#x9;&#x9;&#x9;&#x9;<rect x="89.8" y="117.1" class="st5" width="6.4" height="14"></rect>
&#x9;&#x9;&#x9;&#x9;<rect x="96.2" y="121.8" class="st6" width="1.8" height="4.7"></rect>
&#x9;&#x9;&#x9;&#x9;<rect x="116.9" y="117.1" class="st5" width="6.4" height="14"></rect>
&#x9;&#x9;&#x9;&#x9;<rect x="115.1" y="121.8" class="st6" width="1.8" height="4.7"></rect>
&#x9;&#x9;&#x9;&#x9;<g>
&#x9;&#x9;&#x9;&#x9;&#x9;<line class="st7" x1="91.8" y1="119.8" x2="94.1" y2="119.8"></line>
&#x9;&#x9;&#x9;&#x9;&#x9;<line class="st7" x1="91.8" y1="122.7" x2="94.1" y2="122.7"></line>
&#x9;&#x9;&#x9;&#x9;&#x9;<line class="st7" x1="91.8" y1="125.6" x2="94.1" y2="125.6"></line>
&#x9;&#x9;&#x9;&#x9;&#x9;<line class="st7" x1="91.8" y1="128.5" x2="94.1" y2="128.5"></line>
&#x9;&#x9;&#x9;&#x9;</g>
&#x9;&#x9;&#x9;&#x9;<g>
&#x9;&#x9;&#x9;&#x9;&#x9;<line class="st7" x1="119" y1="119.8" x2="121.3" y2="119.8"></line>
&#x9;&#x9;&#x9;&#x9;&#x9;<line class="st7" x1="119" y1="122.7" x2="121.3" y2="122.7"></line>
&#x9;&#x9;&#x9;&#x9;&#x9;<line class="st7" x1="119" y1="125.6" x2="121.3" y2="125.6"></line>
&#x9;&#x9;&#x9;&#x9;&#x9;<line class="st7" x1="119" y1="128.5" x2="121.3" y2="128.5"></line>
&#x9;&#x9;&#x9;&#x9;</g>
&#x9;&#x9;&#x9;</g>
&#x9;&#x9;&#x9;<g id="_15">
&#x9;&#x9;&#x9;&#x9;<g>
&#x9;&#x9;&#x9;&#x9;&#x9;<g>
&#x9;&#x9;&#x9;&#x9;&#x9;&#x9;<path class="st1" d="M81.1,105.5v15.1c0,1.8-1.5,3.3-3.3,3.3h-2.3v4.7c0,0.5-0.3,1-0.8,1.2c-0.2,0.1-0.3,0.1-0.5,0.1&#xA;&#x9;&#x9;&#x9;&#x9;&#x9;&#x9;&#x9;c-0.3,0-0.7-0.1-0.9-0.4l-5.4-5.6H55.6c-1.8,0-3.3-1.5-3.3-3.3v-2.1h-1.5c-1.8,0-3.3-1.5-3.3-3.3v-14.8c0-1.8,1.5-3.3,3.3-3.3&#xA;&#x9;&#x9;&#x9;&#x9;&#x9;&#x9;&#x9;h20.7c1.8,0,3.3,1.5,3.3,3.3v1.8h3.1C79.7,102.3,81.1,103.7,81.1,105.5L81.1,105.5z M80.1,120.7v-15.1c0-1.3-1-2.3-2.3-2.3&#xA;&#x9;&#x9;&#x9;&#x9;&#x9;&#x9;&#x9;H55.6c-1.3,0-2.3,1-2.3,2.3v15.1c0,1.3,1,2.3,2.3,2.3h12.6c0.1,0,0.3,0.1,0.4,0.2l5.6,5.7c0.1,0.1,0.3,0.1,0.3,0.1&#xA;&#x9;&#x9;&#x9;&#x9;&#x9;&#x9;&#x9;c0.1,0,0.2-0.1,0.2-0.3v-5.2c0-0.3,0.2-0.5,0.5-0.5h2.8C79.1,122.9,80.1,121.9,80.1,120.7L80.1,120.7z M73.8,102.2v-1.8&#xA;&#x9;&#x9;&#x9;&#x9;&#x9;&#x9;&#x9;c0-1.3-1-2.3-2.3-2.3H50.8c-1.3,0-2.3,1-2.3,2.3v14.8c0,1.3,1,2.3,2.3,2.3h1.5v-12c0-1.8,1.5-3.3,3.3-3.3H73.8z"></path>
&#x9;&#x9;&#x9;&#x9;&#x9;&#x9;<path class="st1" d="M73.8,100.4v1.8H55.6c-1.8,0-3.3,1.5-3.3,3.3v12h-1.5c-1.3,0-2.3-1-2.3-2.3v-14.8c0-1.3,1-2.3,2.3-2.3&#xA;&#x9;&#x9;&#x9;&#x9;&#x9;&#x9;&#x9;h20.7C72.7,98.1,73.8,99.2,73.8,100.4z"></path>
&#x9;&#x9;&#x9;&#x9;&#x9;</g>
&#x9;&#x9;&#x9;&#x9;&#x9;<g>
&#x9;&#x9;&#x9;&#x9;&#x9;&#x9;<path class="st8" d="M77.8,102.2h-3.1v-1.8c0-1.8-1.5-3.3-3.3-3.3H50.8c-1.8,0-3.3,1.5-3.3,3.3v14.8c0,1.8,1.5,3.3,3.3,3.3&#xA;&#x9;&#x9;&#x9;&#x9;&#x9;&#x9;&#x9;h1.5v2.1c0,1.8,1.5,3.3,3.3,3.3h12.3l5.4,5.6c0.2,0.3,0.6,0.4,0.9,0.4c0.2,0,0.3,0,0.5-0.1c0.5-0.2,0.8-0.7,0.8-1.2v-4.7h2.3&#xA;&#x9;&#x9;&#x9;&#x9;&#x9;&#x9;&#x9;c1.8,0,3.3-1.5,3.3-3.3v-15.1C81.1,103.7,79.7,102.2,77.8,102.2L77.8,102.2z"></path>
&#x9;&#x9;&#x9;&#x9;&#x9;&#x9;<path class="st8" d="M52.3,105.5v12h-1.5c-1.3,0-2.3-1-2.3-2.3v-14.8c0-1.3,1-2.3,2.3-2.3h20.7c1.3,0,2.3,1,2.3,2.3v1.8H55.6&#xA;&#x9;&#x9;&#x9;&#x9;&#x9;&#x9;&#x9;C53.8,102.2,52.3,103.7,52.3,105.5z"></path>
&#x9;&#x9;&#x9;&#x9;&#x9;&#x9;<path class="st8" d="M80.1,120.6c0,1.3-1,2.3-2.3,2.3h-2.8c-0.3,0-0.5,0.2-0.5,0.5v5.2c0,0.2-0.1,0.2-0.2,0.3&#xA;&#x9;&#x9;&#x9;&#x9;&#x9;&#x9;&#x9;c-0.1,0-0.2,0.1-0.3-0.1l-5.6-5.8c-0.1-0.1-0.2-0.2-0.4-0.2H55.6c-1.3,0-2.3-1-2.3-2.3v-15.1c0-1.3,1-2.3,2.3-2.3h22.3&#xA;&#x9;&#x9;&#x9;&#x9;&#x9;&#x9;&#x9;c1.3,0,2.3,1,2.3,2.3L80.1,120.6L80.1,120.6z"></path>
&#x9;&#x9;&#x9;&#x9;&#x9;</g>
&#x9;&#x9;&#x9;&#x9;</g>
&#x9;&#x9;&#x9;&#x9;<g class="st0">
&#x9;&#x9;&#x9;&#x9;&#x9;<path class="st1" d="M61.3,116.9c0,0.4-0.4,0.8-0.8,0.8c-0.4,0-0.8-0.4-0.8-0.8v-7c0-0.4,0.4-0.8,0.8-0.8&#xA;&#x9;&#x9;&#x9;&#x9;&#x9;&#x9;c0.5,0,0.8,0.3,0.8,0.8v2.6c0.5-0.5,1.1-0.7,1.7-0.7c0.6,0,1.2,0.2,1.6,0.6c0.4,0.4,0.6,0.9,0.6,1.8v2.7c0,0.4-0.4,0.8-0.8,0.8&#xA;&#x9;&#x9;&#x9;&#x9;&#x9;&#x9;s-0.8-0.4-0.8-0.8v-2.3c0-0.4,0-0.8-0.3-1.1c-0.1-0.2-0.4-0.3-0.7-0.3c-1,0-1.3,0.9-1.3,1.7V116.9z"></path>
&#x9;&#x9;&#x9;&#x9;</g>
&#x9;&#x9;&#x9;&#x9;<g class="st0">
&#x9;&#x9;&#x9;&#x9;&#x9;<path class="st1" d="M66.7,109.5c0-0.5,0.4-0.9,0.9-0.9s0.9,0.4,0.9,0.9c0,0.5-0.4,0.9-0.9,0.9S66.7,110,66.7,109.5z&#xA;&#x9;&#x9;&#x9;&#x9;&#x9;&#x9; M67.7,111.8c0.5,0,0.8,0.4,0.8,0.8v4.3c0,0.4-0.4,0.8-0.8,0.8c-0.5,0-0.8-0.4-0.8-0.8v-4.3C66.9,112.2,67.2,111.8,67.7,111.8z&#xA;&#x9;&#x9;&#x9;&#x9;&#x9;&#x9;"></path>
&#x9;&#x9;&#x9;&#x9;&#x9;<path class="st1" d="M72.5,111.9l-0.4,2.4c0,0.3-0.2,0.6-0.5,0.6c-0.4,0-0.5-0.3-0.5-0.6l-0.4-2.4c-0.1-0.3-0.2-0.8-0.2-1.3&#xA;&#x9;&#x9;&#x9;&#x9;&#x9;&#x9;c0-1,0.4-1.5,1.1-1.5c0.7,0,1.1,0.6,1.1,1.5C72.7,111.1,72.6,111.6,72.5,111.9z M71.6,117.6c-0.5,0-1-0.4-1-1c0-0.6,0.4-1,1-1&#xA;&#x9;&#x9;&#x9;&#x9;&#x9;&#x9;s1,0.4,1,1C72.6,117.2,72.1,117.6,71.6,117.6z"></path>
&#x9;&#x9;&#x9;&#x9;</g>
&#x9;&#x9;&#x9;</g>
&#x9;&#x9;</g>
&#x9;</g>
</g>
</svg>