<?xml version="1.0" encoding="UTF-8"?>
<svg id="Capa_2" data-name="Capa 2" xmlns="http://www.w3.org/2000/svg" viewBox="0 0 205.29 62.03">
  <defs>
    <style>
      .cls-1 {
        fill: #3c3c3b;
      }

      .cls-1, .cls-2, .cls-3 {
        stroke-width: 0px;
      }

      .cls-2 {
        fill: #21b668;
      }

      .cls-3 {
        fill: #fff;
      }
    </style>
  </defs>
  <g id="Capa_1-2" data-name="Capa 1">
    <g>
      <g>
        <path class="cls-1" d="m94.28,59.6c-.06,0-.13-.05-.15-.1l-.55-1.67h-2.54l-.53,1.67c-.02.05-.08.1-.15.1h-.92c-.06,0-.09-.06-.07-.1l2.2-6.25c.02-.06.08-.1.15-.1h1.28c.06,0,.13.04.15.1l2.17,6.25s-.02.1-.07.1h-.95Zm-1-2.71l-.98-2.95-.96,2.95h1.93Z"/>
        <path class="cls-1" d="m101.58,58.31l-.8-1.21h-1.17l.05,2.39c0,.05-.05.11-.11.11h-.96c-.06,0-.11-.06-.11-.11l.07-3.15-.07-3.08c0-.05.06-.11.11-.11h2.42c1.54,0,2.46.66,2.46,1.97,0,.99-.56,1.62-1.49,1.87l1.62,2.52s0,.09-.06.09h-1.1c-.06,0-.13-.04-.17-.09l-.7-1.2Zm-.51-4.29h-1.44l-.04,2.21h1.5c.72,0,1.27-.31,1.27-1.09s-.48-1.12-1.3-1.12Z"/>
        <path class="cls-1" d="m108.28,59.6c-.05,0-.11-.06-.11-.11l.08-3.11-.07-2.35h-1.74c-.06,0-.11-.06-.11-.11v-.66c0-.05.05-.11.11-.11h4.67c.05,0,.11.05.11.11v.66c0,.05-.06.11-.11.11h-1.74l-.06,2.35.08,3.11c0,.05-.06.11-.11.11h-1Z"/>
        <path class="cls-1" d="m114.55,59.6c-.06,0-.11-.06-.11-.11l.07-3.16-.07-3.07c0-.05.05-.11.11-.11h4.08c.05,0,.11.05.11.11v.66c0,.05-.06.11-.11.11h-3.01l-.06,1.71h2.83c.06,0,.11.05.11.11v.66c0,.05-.05.11-.11.11h-2.83l.06,2.09h3.09c.06,0,.11.05.11.11v.66c0,.05-.05.11-.11.11h-4.16Z"/>
        <path class="cls-1" d="m124.78,59.73c-1.66,0-2.71-.73-2.79-2.21,0-.05.05-.11.11-.11h.96c.06,0,.11.04.12.11.09.81.49,1.32,1.63,1.32.89,0,1.46-.29,1.46-1,0-1.6-4.16-.38-4.16-2.89,0-1.2.94-1.92,2.47-1.92s2.46.59,2.65,1.93c0,.05-.05.11-.1.11h-.97c-.06,0-.11-.04-.12-.11-.08-.66-.59-1.02-1.49-1.02-.76,0-1.32.28-1.32.9,0,1.5,4.17.3,4.17,2.85,0,1.34-1.05,2.05-2.63,2.05Z"/>
        <path class="cls-1" d="m136.19,57.35v2.14c0,.05-.05.11-.11.11h-.83c-.06,0-.11-.06-.11-.11l.06-3.09-.06-3.14c0-.05.06-.11.11-.11h1.31c.06,0,.13.04.15.1l1.88,4.93,1.8-4.93c.02-.06.08-.1.15-.1h1.22c.05,0,.11.05.11.11l-.06,3.14.06,3.09c0,.05-.05.11-.11.11h-.93c-.06,0-.11-.06-.11-.11v-2.14l.04-2.1.02-.59-1.78,4.84c-.02.05-.08.1-.15.1h-.68c-.06,0-.13-.05-.15-.1l-1.89-4.97.02.74.04,2.08Z"/>
        <path class="cls-1" d="m149.97,59.6c-.06,0-.13-.05-.15-.1l-.55-1.67h-2.54l-.53,1.67c-.02.05-.08.1-.15.1h-.92c-.06,0-.09-.06-.07-.1l2.2-6.25c.02-.06.08-.1.15-.1h1.28c.06,0,.13.04.15.1l2.17,6.25s-.02.1-.07.1h-.95Zm-1-2.71l-.98-2.95-.96,2.95h1.93Z"/>
        <path class="cls-1" d="m157.27,58.31l-.8-1.21h-1.17l.05,2.39c0,.05-.05.11-.11.11h-.96c-.06,0-.11-.06-.11-.11l.07-3.15-.07-3.08c0-.05.06-.11.11-.11h2.42c1.54,0,2.46.66,2.46,1.97,0,.99-.56,1.62-1.49,1.87l1.62,2.52s0,.09-.06.09h-1.1c-.06,0-.13-.04-.17-.09l-.7-1.2Zm-.51-4.29h-1.44l-.04,2.21h1.5c.72,0,1.27-.31,1.27-1.09s-.48-1.12-1.3-1.12Z"/>
        <path class="cls-1" d="m165.43,59.73c-1.94,0-3.11-1.33-3.11-3.35s1.2-3.36,3.1-3.36c1.34,0,2.44.57,2.79,2.25,0,.05-.04.11-.09.11h-.89c-.06,0-.12-.05-.13-.11-.2-.88-.81-1.34-1.69-1.34-1.24,0-1.93.93-1.93,2.45s.71,2.43,1.92,2.43c.98,0,1.57-.53,1.72-1.48,0-.06.06-.11.13-.11h.91c.06,0,.1.06.09.11-.31,1.69-1.34,2.4-2.83,2.4Z"/>
        <path class="cls-1" d="m171.76,59.6c-.06,0-.11-.06-.11-.11l.07-3.14-.07-3.09c0-.05.05-.11.11-.11h.96c.06,0,.11.05.11.11l-.07,3.09.07,3.14c0,.05-.06.11-.11.11h-.96Z"/>
        <path class="cls-1" d="m180.97,59.6c-.06,0-.13-.05-.15-.1l-.55-1.67h-2.54l-.53,1.67c-.02.05-.08.1-.15.1h-.92c-.06,0-.09-.06-.07-.1l2.2-6.25c.02-.06.08-.1.15-.1h1.28c.06,0,.13.04.15.1l2.17,6.25s-.02.1-.07.1h-.95Zm-1-2.71l-.98-2.95-.96,2.95h1.93Z"/>
        <path class="cls-1" d="m185.27,59.6c-.06,0-.11-.06-.11-.11l.07-3.18-.07-3.05c0-.05.05-.11.11-.11h.96c.06,0,.11.05.11.11l-.06,2.99.06,2.47h2.7c.05,0,.11.05.11.11v.66c0,.05-.06.11-.11.11h-3.77Z"/>
        <path class="cls-1" d="m192.44,59.6c-.06,0-.11-.06-.11-.11l.07-3.16-.07-3.07c0-.05.06-.11.11-.11h4.08c.05,0,.11.05.11.11v.66c0,.05-.06.11-.11.11h-3.01l-.05,1.71h2.83c.06,0,.11.05.11.11v.66c0,.05-.05.11-.11.11h-2.83l.05,2.09h3.09c.06,0,.11.05.11.11v.66c0,.05-.05.11-.11.11h-4.16Z"/>
        <path class="cls-1" d="m202.66,59.73c-1.66,0-2.71-.73-2.79-2.21,0-.05.05-.11.11-.11h.96c.06,0,.11.04.12.11.09.81.49,1.32,1.63,1.32.89,0,1.46-.29,1.46-1,0-1.6-4.16-.38-4.16-2.89,0-1.2.94-1.92,2.47-1.92s2.46.59,2.65,1.93c0,.05-.05.11-.1.11h-.97c-.06,0-.11-.04-.12-.11-.08-.66-.59-1.02-1.49-1.02-.76,0-1.32.28-1.32.9,0,1.5,4.17.3,4.17,2.85,0,1.34-1.05,2.05-2.63,2.05Z"/>
      </g>
      <g>
        <path class="cls-2" d="m111.45,12.02c0-.37.19-.5.5-.5h10.28c.31,0,.5.12.5.5l-.12,15.7.12,15.39c0,.37-.19.5-.5.5h-10.03c-.31,0-.5-.12-.5-.5l.12-3.12c-2.24,2.68-5.42,4.24-9.47,4.24-9.1,0-13.96-7.23-13.96-16.57s5.61-16.76,14.45-16.76c3.74,0,6.67,1.31,8.78,3.74l-.19-2.62Zm.44,15.64c.06-6.35-1.99-9.41-5.92-9.41-3.99-.06-6.17,2.87-6.17,9.1,0,6.54,2.24,9.66,6.04,9.59,3.8,0,5.98-2.93,6.04-9.28Z"/>
        <path class="cls-2" d="m136.31.5v8.04c0,.31-.19.5-.5.5h-10.4c-.31,0-.5-.19-.5-.5V.5c0-.31.19-.5.5-.5h10.4c.31,0,.5.19.5.5Zm0,42.61c0,.37-.19.5-.5.5h-10.34c-.31,0-.5-.12-.5-.5l.19-15.26-.19-15.82c0-.37.19-.5.5-.5h10.34c.31,0,.5.12.5.5l-.12,15.82.12,15.26Z"/>
        <path class="cls-2" d="m187.78,43.11c0,.37-.19.5-.5.5h-10.34c-.31,0-.5-.12-.5-.5l.12-12.09v-7.29c0-3.3-1.18-4.86-3.05-4.86-2.37,0-4.49,3.11-4.8,9.03v3.12l.19,12.09c0,.37-.19.5-.5.5h-10.4c-.31,0-.5-.12-.5-.5l.19-12.09v-7.29c0-3.3-1.18-4.86-3.12-4.86-2.55,0-4.73,3.43-4.73,10.16v1.99l.12,12.09c0,.37-.19.5-.5.5h-10.4c-.31,0-.5-.12-.5-.5l.12-13.4V12.02c0-.31.19-.5.5-.5h9.78c.31,0,.5.12.5.5l-.19,3.36c2.18-3.24,5.54-4.61,9.47-4.61,4.3,0,7.29,1.68,8.85,5.05,2.24-3.8,5.54-5.05,9.41-5.05,6.85,0,10.65,4.42,10.65,12.15v8.1l.12,12.09Z"/>
      </g>
      <g>
        <path class="cls-2" d="m3.03.27h66.46c1.67,0,3.03,1.36,3.03,3.03v55.7c0,1.67-1.36,3.03-3.03,3.03H3.03c-1.67,0-3.03-1.36-3.03-3.03V3.3C0,1.63,1.36.27,3.03.27Z"/>
        <g>
          <path class="cls-3" d="m66.29,29.02v3.71c0,4.2-2.23,8-5.87,10.04v6.83c0,.97-.61,1.8-1.47,2.14v1.49c0,1.28-1.03,2.3-2.3,2.3h-14.77c-1.27,0-2.29-1.02-2.29-2.3v-1.49c-.87-.33-1.48-1.18-1.48-2.14v-6.93c-.73-.59-1.42-1.24-2.03-1.96-.58.63-1.2,1.21-1.87,1.74v6.89c0,.97-.6,1.8-1.46,2.13v1.51c0,1.27-1.02,2.29-2.29,2.29h-14.67c-1.27,0-2.29-1.02-2.29-2.29v-1.52c-.84-.33-1.46-1.16-1.46-2.12v-6.79c-3.61-2.03-5.83-5.81-5.83-9.99v-3.68c0-2.07,1.2-4.04,2.92-4.94v-1.89c-.01-7.34,1.29-13.16,9.6-13h11.71c2.07,0,4.08.67,5.72,1.9,1.61-1.19,3.59-1.9,5.74-1.9h11.79c5.33,0,9.65,4.33,9.65,9.66v5.31c1.73.91,2.93,2.9,2.93,4.98Zm-1.76,3.71v-3.71c0-1.51-.94-3-2.22-3.52h-4.97c-3.58-.01-3.95,5.58,0,5.58h2.2c.48,0,.88.4.88.88s-.4.89-.88.89h-2.2c-2.42,0-4.47-1.98-4.54-4.39h-9.36c-3.74,0-6.79-3.04-6.79-6.79,0-.49.4-.88.89-.88s.88.39.88.88c0,2.77,2.26,5.02,5.02,5.02h9.65c.64-1.72,2.31-2.94,4.25-2.94h4.25v-5.01c0-4.37-3.54-7.9-7.91-7.9h-11.77c-4.37,0-7.9,3.53-7.9,7.9v11.76c0,4.18,1.99,8.28,5.29,10.86h20.02c3.22-1.7,5.21-4.99,5.21-8.63Zm-5.88,16.61v-6.48h-14.39v7.02h13.84c.3,0,.54-.24.54-.54Zm-1.47,3.64v-1.34h-15.85v1.34c0,.3.24.53.53.53h14.77c.3,0,.54-.23.54-.53Zm-14.67-3.1v-7.02h-2.64v6.48c0,.3.24.54.53.54h2.11Zm-9.48-8.73c.71-.56,1.36-1.18,1.94-1.86-1.77-2.58-2.73-5.68-2.73-8.8v-11.76c0-2.53.98-4.84,2.58-6.57-1.29-.87-2.81-1.33-4.38-1.33h-11.71c-7.06,0-7.62,4.48-7.85,11.35v5.25c.01,1.92,1.58,3.49,3.51,3.49.48,0,.88.4.88.89s-.4.88-.88.88c-2.9,0-5.25-2.35-5.25-5.25v-1.32c-.7.7-1.16,1.73-1.16,2.78v3.68c0,3.62,1.97,6.89,5.17,8.58h19.88Zm-.59,7.93v-6.43H13.82v6.43c0,.29.23.53.52.53h17.6c.29,0,.52-.24.52-.53Zm-1.46,3.64v-1.36h-15.73v1.36c0,.3.23.53.52.53h14.69c.29,0,.52-.23.52-.53Z"/>
          <path class="cls-3" d="m58.66,42.87v6.48c0,.3-.24.54-.54.54h-13.84v-7.02h14.39Z"/>
          <path class="cls-3" d="m32.46,42.65v6.43c0,.29-.23.53-.52.53H14.34c-.29,0-.52-.24-.52-.53v-6.43h18.64Z"/>
        </g>
      </g>
    </g>
  </g>
</svg>